<mxfile host="app.diagrams.net" modified="2021-11-25T07:12:45.299Z" agent="5.0 (Windows NT 10.0; Win64; x64) AppleWebKit/537.36 (KHTML, like Gecko) Chrome/95.0.4638.69 Safari/537.36" etag="BfvU_OJ3X-jX3NB-uGCq" version="15.8.6" type="github">
  <diagram id="A6_Hj7fd0hjcGAL906mO" name="페이지-1">
    <mxGraphModel dx="509" dy="569" grid="0" gridSize="10" guides="1" tooltips="1" connect="1" arrows="1" fold="1" page="1" pageScale="1" pageWidth="827" pageHeight="1169" math="0" shadow="0">
      <root>
        <mxCell id="0" />
        <mxCell id="1" parent="0" />
        <mxCell id="yaBAFxhRqyZjofOziAG2-1" value="" style="rounded=0;whiteSpace=wrap;html=1;" parent="1" vertex="1">
          <mxGeometry x="77" y="447" width="272" height="159" as="geometry" />
        </mxCell>
        <mxCell id="w-wFeXm62orqrfAYWtf3-2" value="생체 인증" style="rounded=0;whiteSpace=wrap;html=1;" parent="1" vertex="1">
          <mxGeometry x="96" y="502" width="65" height="46" as="geometry" />
        </mxCell>
        <mxCell id="w-wFeXm62orqrfAYWtf3-4" value="Training Process&amp;nbsp;&lt;br&gt;ex)텐서플로" style="rounded=0;whiteSpace=wrap;html=1;" parent="1" vertex="1">
          <mxGeometry x="212" y="495" width="120" height="60" as="geometry" />
        </mxCell>
        <mxCell id="w-wFeXm62orqrfAYWtf3-5" value="" style="endArrow=classic;html=1;rounded=0;exitX=1;exitY=0.5;exitDx=0;exitDy=0;entryX=0;entryY=0.5;entryDx=0;entryDy=0;" parent="1" source="w-wFeXm62orqrfAYWtf3-2" target="w-wFeXm62orqrfAYWtf3-4" edge="1">
          <mxGeometry width="50" height="50" relative="1" as="geometry">
            <mxPoint x="226" y="623" as="sourcePoint" />
            <mxPoint x="276" y="573" as="targetPoint" />
          </mxGeometry>
        </mxCell>
        <mxCell id="w-wFeXm62orqrfAYWtf3-6" value="스마트폰" style="text;html=1;strokeColor=none;fillColor=none;align=center;verticalAlign=middle;whiteSpace=wrap;rounded=0;" parent="1" vertex="1">
          <mxGeometry x="173" y="457" width="60" height="30" as="geometry" />
        </mxCell>
        <mxCell id="w-wFeXm62orqrfAYWtf3-7" value="Client" style="text;html=1;strokeColor=none;fillColor=none;align=center;verticalAlign=middle;whiteSpace=wrap;rounded=0;" parent="1" vertex="1">
          <mxGeometry x="173" y="406" width="60" height="30" as="geometry" />
        </mxCell>
        <mxCell id="w-wFeXm62orqrfAYWtf3-10" value="" style="rounded=0;whiteSpace=wrap;html=1;labelBackgroundColor=none;fillColor=none;" parent="1" vertex="1">
          <mxGeometry x="552" y="447" width="234" height="157" as="geometry" />
        </mxCell>
        <mxCell id="w-wFeXm62orqrfAYWtf3-11" value="Web Server" style="text;html=1;strokeColor=none;fillColor=none;align=center;verticalAlign=middle;whiteSpace=wrap;rounded=0;labelBackgroundColor=none;" parent="1" vertex="1">
          <mxGeometry x="544" y="402" width="60" height="30" as="geometry" />
        </mxCell>
        <mxCell id="w-wFeXm62orqrfAYWtf3-13" value="DB" style="shape=cylinder3;whiteSpace=wrap;html=1;boundedLbl=1;backgroundOutline=1;size=15;labelBackgroundColor=none;fillColor=none;" parent="1" vertex="1">
          <mxGeometry x="572" y="487" width="60" height="80" as="geometry" />
        </mxCell>
        <mxCell id="w-wFeXm62orqrfAYWtf3-14" value="" style="endArrow=classic;html=1;rounded=0;exitX=1.01;exitY=0.308;exitDx=0;exitDy=0;exitPerimeter=0;entryX=-0.004;entryY=0.316;entryDx=0;entryDy=0;entryPerimeter=0;" parent="1" source="yaBAFxhRqyZjofOziAG2-1" target="w-wFeXm62orqrfAYWtf3-10" edge="1">
          <mxGeometry width="50" height="50" relative="1" as="geometry">
            <mxPoint x="419" y="576" as="sourcePoint" />
            <mxPoint x="463" y="496" as="targetPoint" />
          </mxGeometry>
        </mxCell>
        <mxCell id="w-wFeXm62orqrfAYWtf3-15" value="" style="endArrow=classic;html=1;rounded=0;exitX=-0.017;exitY=0.704;exitDx=0;exitDy=0;exitPerimeter=0;" parent="1" source="w-wFeXm62orqrfAYWtf3-10" edge="1">
          <mxGeometry width="50" height="50" relative="1" as="geometry">
            <mxPoint x="419" y="576" as="sourcePoint" />
            <mxPoint x="345" y="559" as="targetPoint" />
          </mxGeometry>
        </mxCell>
        <mxCell id="w-wFeXm62orqrfAYWtf3-16" value="Training Information" style="text;html=1;strokeColor=none;fillColor=none;align=center;verticalAlign=middle;whiteSpace=wrap;rounded=0;labelBackgroundColor=none;" parent="1" vertex="1">
          <mxGeometry x="375" y="457" width="86" height="30" as="geometry" />
        </mxCell>
        <mxCell id="w-wFeXm62orqrfAYWtf3-17" value="Front-end result" style="text;html=1;strokeColor=none;fillColor=none;align=center;verticalAlign=middle;whiteSpace=wrap;rounded=0;labelBackgroundColor=none;" parent="1" vertex="1">
          <mxGeometry x="388" y="520" width="60" height="30" as="geometry" />
        </mxCell>
        <mxCell id="w-wFeXm62orqrfAYWtf3-18" value="" style="rounded=0;whiteSpace=wrap;html=1;labelBackgroundColor=none;fillColor=none;" parent="1" vertex="1">
          <mxGeometry x="942" y="447" width="218" height="156" as="geometry" />
        </mxCell>
        <mxCell id="w-wFeXm62orqrfAYWtf3-19" value="AI Server" style="text;html=1;strokeColor=none;fillColor=none;align=center;verticalAlign=middle;whiteSpace=wrap;rounded=0;labelBackgroundColor=none;" parent="1" vertex="1">
          <mxGeometry x="967" y="406" width="60" height="30" as="geometry" />
        </mxCell>
        <mxCell id="w-wFeXm62orqrfAYWtf3-20" value="Analyzer" style="rounded=0;whiteSpace=wrap;html=1;labelBackgroundColor=none;fillColor=none;" parent="1" vertex="1">
          <mxGeometry x="649" y="480" width="111" height="99" as="geometry" />
        </mxCell>
        <mxCell id="w-wFeXm62orqrfAYWtf3-21" value="" style="endArrow=classic;html=1;rounded=0;exitX=1.005;exitY=0.297;exitDx=0;exitDy=0;exitPerimeter=0;entryX=-0.017;entryY=0.299;entryDx=0;entryDy=0;entryPerimeter=0;" parent="1" source="w-wFeXm62orqrfAYWtf3-10" target="w-wFeXm62orqrfAYWtf3-18" edge="1">
          <mxGeometry width="50" height="50" relative="1" as="geometry">
            <mxPoint x="570" y="569" as="sourcePoint" />
            <mxPoint x="620" y="519" as="targetPoint" />
          </mxGeometry>
        </mxCell>
        <mxCell id="w-wFeXm62orqrfAYWtf3-23" value="Classified Information" style="text;html=1;strokeColor=none;fillColor=none;align=center;verticalAlign=middle;whiteSpace=wrap;rounded=0;labelBackgroundColor=none;" parent="1" vertex="1">
          <mxGeometry x="827" y="454" width="60" height="30" as="geometry" />
        </mxCell>
        <mxCell id="w-wFeXm62orqrfAYWtf3-24" value="" style="endArrow=classic;html=1;rounded=0;entryX=1;entryY=0.75;entryDx=0;entryDy=0;exitX=0;exitY=0.75;exitDx=0;exitDy=0;" parent="1" source="w-wFeXm62orqrfAYWtf3-18" target="w-wFeXm62orqrfAYWtf3-10" edge="1">
          <mxGeometry width="50" height="50" relative="1" as="geometry">
            <mxPoint x="877" y="561" as="sourcePoint" />
            <mxPoint x="927" y="511" as="targetPoint" />
          </mxGeometry>
        </mxCell>
        <mxCell id="w-wFeXm62orqrfAYWtf3-25" value="Learning result" style="text;html=1;strokeColor=none;fillColor=none;align=center;verticalAlign=middle;whiteSpace=wrap;rounded=0;labelBackgroundColor=none;" parent="1" vertex="1">
          <mxGeometry x="827" y="529" width="60" height="30" as="geometry" />
        </mxCell>
        <mxCell id="w-wFeXm62orqrfAYWtf3-27" value="AI" style="whiteSpace=wrap;html=1;aspect=fixed;labelBackgroundColor=none;fillColor=none;" parent="1" vertex="1">
          <mxGeometry x="959" y="480" width="35" height="35" as="geometry" />
        </mxCell>
        <mxCell id="w-wFeXm62orqrfAYWtf3-29" value="Server" style="text;html=1;strokeColor=none;fillColor=none;align=center;verticalAlign=middle;whiteSpace=wrap;rounded=0;labelBackgroundColor=none;" parent="1" vertex="1">
          <mxGeometry x="798" y="282" width="60" height="30" as="geometry" />
        </mxCell>
        <mxCell id="w-wFeXm62orqrfAYWtf3-30" value="Learning Machine" style="rounded=0;whiteSpace=wrap;html=1;labelBackgroundColor=none;fillColor=none;" parent="1" vertex="1">
          <mxGeometry x="1014" y="472" width="120" height="60" as="geometry" />
        </mxCell>
        <mxCell id="w-wFeXm62orqrfAYWtf3-31" value="" style="ellipse;shape=cloud;whiteSpace=wrap;html=1;labelBackgroundColor=none;fillColor=none;" parent="1" vertex="1">
          <mxGeometry x="399" y="256" width="890" height="502" as="geometry" />
        </mxCell>
        <mxCell id="w-wFeXm62orqrfAYWtf3-32" value="" style="rounded=0;whiteSpace=wrap;html=1;labelBackgroundColor=none;fillColor=none;" parent="1" vertex="1">
          <mxGeometry x="106.5" y="965" width="193" height="337" as="geometry" />
        </mxCell>
        <mxCell id="w-wFeXm62orqrfAYWtf3-33" value="Front End" style="text;html=1;strokeColor=none;fillColor=none;align=center;verticalAlign=middle;whiteSpace=wrap;rounded=0;labelBackgroundColor=none;" parent="1" vertex="1">
          <mxGeometry x="173" y="920" width="60" height="30" as="geometry" />
        </mxCell>
        <mxCell id="w-wFeXm62orqrfAYWtf3-34" value="생체 인증 요구" style="rounded=0;whiteSpace=wrap;html=1;labelBackgroundColor=none;fillColor=none;" parent="1" vertex="1">
          <mxGeometry x="147.5" y="1093.5" width="103" height="60" as="geometry" />
        </mxCell>
        <mxCell id="w-wFeXm62orqrfAYWtf3-35" value="생체 인증을 통한 잠금 화면 해제" style="rounded=0;whiteSpace=wrap;html=1;labelBackgroundColor=none;fillColor=none;" parent="1" vertex="1">
          <mxGeometry x="149" y="1205" width="103" height="60" as="geometry" />
        </mxCell>
        <mxCell id="w-wFeXm62orqrfAYWtf3-36" value="생체 인증 알람" style="rounded=0;whiteSpace=wrap;html=1;labelBackgroundColor=none;fillColor=none;" parent="1" vertex="1">
          <mxGeometry x="149" y="985" width="103" height="60" as="geometry" />
        </mxCell>
        <mxCell id="w-wFeXm62orqrfAYWtf3-37" value="" style="endArrow=classic;html=1;rounded=0;exitX=0.5;exitY=1;exitDx=0;exitDy=0;" parent="1" source="w-wFeXm62orqrfAYWtf3-36" target="w-wFeXm62orqrfAYWtf3-34" edge="1">
          <mxGeometry width="50" height="50" relative="1" as="geometry">
            <mxPoint x="120.5" y="1153" as="sourcePoint" />
            <mxPoint x="170.5" y="1103" as="targetPoint" />
          </mxGeometry>
        </mxCell>
        <mxCell id="w-wFeXm62orqrfAYWtf3-38" value="" style="endArrow=classic;html=1;rounded=0;exitX=0.5;exitY=1;exitDx=0;exitDy=0;entryX=0.5;entryY=0;entryDx=0;entryDy=0;" parent="1" source="w-wFeXm62orqrfAYWtf3-34" target="w-wFeXm62orqrfAYWtf3-35" edge="1">
          <mxGeometry width="50" height="50" relative="1" as="geometry">
            <mxPoint x="120.5" y="1153" as="sourcePoint" />
            <mxPoint x="170.5" y="1103" as="targetPoint" />
          </mxGeometry>
        </mxCell>
        <mxCell id="w-wFeXm62orqrfAYWtf3-39" value="" style="rounded=0;whiteSpace=wrap;html=1;labelBackgroundColor=none;fillColor=none;" parent="1" vertex="1">
          <mxGeometry x="544" y="965" width="245" height="337" as="geometry" />
        </mxCell>
        <mxCell id="w-wFeXm62orqrfAYWtf3-40" value="Back End" style="text;html=1;strokeColor=none;fillColor=none;align=center;verticalAlign=middle;whiteSpace=wrap;rounded=0;labelBackgroundColor=none;" parent="1" vertex="1">
          <mxGeometry x="630.5" y="923" width="60" height="30" as="geometry" />
        </mxCell>
        <mxCell id="wCIphniFwIAhAi2uCgMU-1" value="Web Server" style="rounded=0;whiteSpace=wrap;html=1;labelBackgroundColor=none;fillColor=none;" vertex="1" parent="1">
          <mxGeometry x="600.5" y="1019" width="120" height="60" as="geometry" />
        </mxCell>
        <mxCell id="wCIphniFwIAhAi2uCgMU-2" value="AI Server" style="rounded=0;whiteSpace=wrap;html=1;labelBackgroundColor=none;fillColor=none;" vertex="1" parent="1">
          <mxGeometry x="604" y="1205" width="120" height="60" as="geometry" />
        </mxCell>
        <mxCell id="wCIphniFwIAhAi2uCgMU-3" value="" style="endArrow=classic;startArrow=classic;html=1;rounded=0;entryX=0.451;entryY=0.01;entryDx=0;entryDy=0;entryPerimeter=0;" edge="1" parent="1" target="wCIphniFwIAhAi2uCgMU-2">
          <mxGeometry width="50" height="50" relative="1" as="geometry">
            <mxPoint x="661" y="1077" as="sourcePoint" />
            <mxPoint x="740.5" y="1069" as="targetPoint" />
          </mxGeometry>
        </mxCell>
        <mxCell id="wCIphniFwIAhAi2uCgMU-4" value="" style="endArrow=classic;html=1;rounded=0;exitX=1;exitY=0.25;exitDx=0;exitDy=0;entryX=0;entryY=0.5;entryDx=0;entryDy=0;" edge="1" parent="1" source="w-wFeXm62orqrfAYWtf3-32" target="wCIphniFwIAhAi2uCgMU-1">
          <mxGeometry width="50" height="50" relative="1" as="geometry">
            <mxPoint x="517" y="1123" as="sourcePoint" />
            <mxPoint x="567" y="1073" as="targetPoint" />
          </mxGeometry>
        </mxCell>
        <mxCell id="wCIphniFwIAhAi2uCgMU-5" value="" style="endArrow=classic;html=1;rounded=0;exitX=0;exitY=0.5;exitDx=0;exitDy=0;" edge="1" parent="1" source="wCIphniFwIAhAi2uCgMU-2">
          <mxGeometry width="50" height="50" relative="1" as="geometry">
            <mxPoint x="517" y="1123" as="sourcePoint" />
            <mxPoint x="300" y="1235" as="targetPoint" />
          </mxGeometry>
        </mxCell>
        <mxCell id="wCIphniFwIAhAi2uCgMU-6" value="Training Information" style="text;html=1;strokeColor=none;fillColor=none;align=center;verticalAlign=middle;whiteSpace=wrap;rounded=0;labelBackgroundColor=none;" vertex="1" parent="1">
          <mxGeometry x="384" y="989" width="60" height="30" as="geometry" />
        </mxCell>
        <mxCell id="wCIphniFwIAhAi2uCgMU-8" value="Authentication Logic" style="rounded=0;whiteSpace=wrap;html=1;labelBackgroundColor=none;fillColor=none;" vertex="1" parent="1">
          <mxGeometry x="1014" y="539" width="120" height="60" as="geometry" />
        </mxCell>
        <mxCell id="wCIphniFwIAhAi2uCgMU-9" value="Result" style="text;html=1;strokeColor=none;fillColor=none;align=center;verticalAlign=middle;whiteSpace=wrap;rounded=0;labelBackgroundColor=none;" vertex="1" parent="1">
          <mxGeometry x="384" y="1196" width="60" height="30" as="geometry" />
        </mxCell>
      </root>
    </mxGraphModel>
  </diagram>
</mxfile>
